<svg width="834" height="202" viewBox="0 0 834 202" fill="none" xmlns="http://www.w3.org/2000/svg">
<path d="M285.312 90.304C285.312 94.208 284.416 97.792 282.624 101.056C280.832 104.256 278.08 106.848 274.368 108.832C270.656 110.816 266.048 111.808 260.544 111.808H250.368V136H233.952V68.608H260.544C265.92 68.608 270.464 69.536 274.176 71.392C277.888 73.248 280.672 75.808 282.528 79.072C284.384 82.336 285.312 86.08 285.312 90.304ZM259.296 98.752C262.432 98.752 264.768 98.016 266.304 96.544C267.84 95.072 268.608 92.992 268.608 90.304C268.608 87.616 267.84 85.536 266.304 84.064C264.768 82.592 262.432 81.856 259.296 81.856H250.368V98.752H259.296ZM290.594 109.12C290.594 103.616 291.618 98.784 293.666 94.624C295.778 90.464 298.626 87.264 302.21 85.024C305.794 82.784 309.794 81.664 314.21 81.664C317.986 81.664 321.282 82.432 324.098 83.968C326.978 85.504 329.186 87.52 330.722 90.016V82.432H347.138V136H330.722V128.416C329.122 130.912 326.882 132.928 324.002 134.464C321.186 136 317.89 136.768 314.114 136.768C309.762 136.768 305.794 135.648 302.21 133.408C298.626 131.104 295.778 127.872 293.666 123.712C291.618 119.488 290.594 114.624 290.594 109.12ZM330.722 109.216C330.722 105.12 329.57 101.888 327.266 99.52C325.026 97.152 322.274 95.968 319.01 95.968C315.746 95.968 312.962 97.152 310.658 99.52C308.418 101.824 307.298 105.024 307.298 109.12C307.298 113.216 308.418 116.48 310.658 118.912C312.962 121.28 315.746 122.464 319.01 122.464C322.274 122.464 325.026 121.28 327.266 118.912C329.57 116.544 330.722 113.312 330.722 109.216ZM413.735 82.432L380.135 161.44H362.471L374.759 134.176L352.966 82.432H371.303L383.687 115.936L395.975 82.432H413.735ZM495.991 68.608V136H479.575V95.584L464.503 136H451.255L436.087 95.488V136H419.671V68.608H439.063L457.975 115.264L476.695 68.608H495.991ZM558.292 108.352C558.292 109.888 558.196 111.488 558.004 113.152H520.852C521.108 116.48 522.164 119.04 524.02 120.832C525.94 122.56 528.276 123.424 531.028 123.424C535.124 123.424 537.972 121.696 539.572 118.24H557.044C556.148 121.76 554.516 124.928 552.148 127.744C549.844 130.56 546.932 132.768 543.412 134.368C539.892 135.968 535.956 136.768 531.604 136.768C526.356 136.768 521.684 135.648 517.588 133.408C513.492 131.168 510.292 127.968 507.988 123.808C505.684 119.648 504.532 114.784 504.532 109.216C504.532 103.648 505.652 98.784 507.892 94.624C510.196 90.464 513.396 87.264 517.492 85.024C521.588 82.784 526.292 81.664 531.604 81.664C536.788 81.664 541.396 82.752 545.428 84.928C549.46 87.104 552.596 90.208 554.836 94.24C557.14 98.272 558.292 102.976 558.292 108.352ZM541.492 104.032C541.492 101.216 540.532 98.976 538.612 97.312C536.692 95.648 534.292 94.816 531.412 94.816C528.66 94.816 526.324 95.616 524.404 97.216C522.548 98.816 521.396 101.088 520.948 104.032H541.492ZM583.368 123.328H604.872V136H566.952V68.608H583.368V123.328ZM609.438 109.12C609.438 103.616 610.462 98.784 612.51 94.624C614.622 90.464 617.47 87.264 621.054 85.024C624.638 82.784 628.638 81.664 633.054 81.664C636.83 81.664 640.126 82.432 642.942 83.968C645.822 85.504 648.03 87.52 649.566 90.016V82.432H665.982V136H649.566V128.416C647.966 130.912 645.726 132.928 642.846 134.464C640.03 136 636.734 136.768 632.958 136.768C628.606 136.768 624.638 135.648 621.054 133.408C617.47 131.104 614.622 127.872 612.51 123.712C610.462 119.488 609.438 114.624 609.438 109.12ZM649.566 109.216C649.566 105.12 648.414 101.888 646.11 99.52C643.87 97.152 641.118 95.968 637.854 95.968C634.59 95.968 631.806 97.152 629.502 99.52C627.262 101.824 626.142 105.024 626.142 109.12C626.142 113.216 627.262 116.48 629.502 118.912C631.806 121.28 634.59 122.464 637.854 122.464C641.118 122.464 643.87 121.28 646.11 118.912C648.414 116.544 649.566 113.312 649.566 109.216ZM707.714 122.08V136H699.362C693.41 136 688.77 134.56 685.442 131.68C682.114 128.736 680.45 123.968 680.45 117.376V96.064H673.922V82.432H680.45V69.376H696.866V82.432H707.618V96.064H696.866V117.568C696.866 119.168 697.25 120.32 698.018 121.024C698.786 121.728 700.066 122.08 701.858 122.08H707.714ZM767.354 108.352C767.354 109.888 767.258 111.488 767.066 113.152H729.914C730.17 116.48 731.226 119.04 733.082 120.832C735.002 122.56 737.338 123.424 740.09 123.424C744.186 123.424 747.034 121.696 748.634 118.24H766.106C765.21 121.76 763.578 124.928 761.21 127.744C758.906 130.56 755.994 132.768 752.474 134.368C748.954 135.968 745.018 136.768 740.666 136.768C735.418 136.768 730.746 135.648 726.65 133.408C722.554 131.168 719.354 127.968 717.05 123.808C714.746 119.648 713.594 114.784 713.594 109.216C713.594 103.648 714.714 98.784 716.954 94.624C719.258 90.464 722.458 87.264 726.554 85.024C730.65 82.784 735.354 81.664 740.666 81.664C745.85 81.664 750.458 82.752 754.49 84.928C758.522 87.104 761.658 90.208 763.898 94.24C766.202 98.272 767.354 102.976 767.354 108.352ZM750.554 104.032C750.554 101.216 749.594 98.976 747.674 97.312C745.754 95.648 743.354 94.816 740.474 94.816C737.722 94.816 735.386 95.616 733.466 97.216C731.61 98.816 730.458 101.088 730.01 104.032H750.554ZM792.431 91.36C794.351 88.416 796.751 86.112 799.631 84.448C802.511 82.72 805.711 81.856 809.231 81.856V99.232H804.719C800.623 99.232 797.551 100.128 795.503 101.92C793.455 103.648 792.431 106.72 792.431 111.136V136H776.015V82.432H792.431V91.36Z" fill="white"/>
<path d="M282.624 101.056L282.799 101.154L282.799 101.152L282.624 101.056ZM274.368 108.832L274.274 108.656L274.274 108.656L274.368 108.832ZM250.368 111.808V111.608H250.168V111.808H250.368ZM250.368 136V136.2H250.568V136H250.368ZM233.952 136H233.752V136.2H233.952V136ZM233.952 68.608V68.408H233.752V68.608H233.952ZM274.176 71.392L274.265 71.2131L274.265 71.2131L274.176 71.392ZM250.368 81.856V81.656H250.168V81.856H250.368ZM250.368 98.752H250.168V98.952H250.368V98.752ZM285.112 90.304C285.112 94.176 284.224 97.7267 282.449 100.96L282.799 101.152C284.608 97.8573 285.512 94.24 285.512 90.304H285.112ZM282.449 100.958C280.679 104.12 277.957 106.687 274.274 108.656L274.462 109.008C278.203 107.009 280.985 104.392 282.799 101.154L282.449 100.958ZM274.274 108.656C270.598 110.62 266.025 111.608 260.544 111.608V112.008C266.071 112.008 270.714 111.012 274.462 109.008L274.274 108.656ZM260.544 111.608H250.368V112.008H260.544V111.608ZM250.168 111.808V136H250.568V111.808H250.168ZM250.368 135.8H233.952V136.2H250.368V135.8ZM234.152 136V68.608H233.752V136H234.152ZM233.952 68.808H260.544V68.408H233.952V68.808ZM260.544 68.808C265.898 68.808 270.409 69.7322 274.087 71.5709L274.265 71.2131C270.519 69.3397 265.942 68.408 260.544 68.408V68.808ZM274.087 71.5709C277.767 73.4111 280.52 75.9449 282.354 79.1709L282.702 78.9731C280.824 75.6711 278.009 73.0849 274.265 71.2131L274.087 71.5709ZM282.354 79.1709C284.191 82.4011 285.112 86.1102 285.112 90.304H285.512C285.512 86.0497 284.577 82.2709 282.702 78.9731L282.354 79.1709ZM259.296 98.952C262.459 98.952 264.855 98.2099 266.442 96.6884L266.166 96.3996C264.681 97.8221 262.405 98.552 259.296 98.552V98.952ZM266.442 96.6884C268.028 95.1693 268.808 93.0313 268.808 90.304H268.408C268.408 92.9527 267.652 94.9747 266.166 96.3996L266.442 96.6884ZM268.808 90.304C268.808 87.5767 268.028 85.4387 266.442 83.9196L266.166 84.2084C267.652 85.6333 268.408 87.6553 268.408 90.304H268.808ZM266.442 83.9196C264.855 82.3981 262.459 81.656 259.296 81.656V82.056C262.405 82.056 264.681 82.7859 266.166 84.2084L266.442 83.9196ZM259.296 81.656H250.368V82.056H259.296V81.656ZM250.168 81.856V98.752H250.568V81.856H250.168ZM250.368 98.952H259.296V98.552H250.368V98.952ZM293.666 94.624L293.488 94.5335L293.487 94.5357L293.666 94.624ZM302.21 85.024L302.316 85.1936L302.316 85.1936L302.21 85.024ZM324.098 83.968L324.002 84.1436L324.004 84.1445L324.098 83.968ZM330.722 90.016L330.552 90.1208L330.922 90.7226V90.016H330.722ZM330.722 82.432V82.232H330.522V82.432H330.722ZM347.138 82.432H347.338V82.232H347.138V82.432ZM347.138 136V136.2H347.338V136H347.138ZM330.722 136H330.522V136.2H330.722V136ZM330.722 128.416H330.922V127.733L330.554 128.308L330.722 128.416ZM324.002 134.464L323.908 134.288L323.906 134.288L324.002 134.464ZM302.21 133.408L302.102 133.576L302.104 133.578L302.21 133.408ZM293.666 123.712L293.486 123.799L293.488 123.803L293.666 123.712ZM327.266 99.52L327.121 99.6575L327.123 99.6595L327.266 99.52ZM310.658 99.52L310.515 99.3805L310.515 99.3806L310.658 99.52ZM310.658 118.912L310.511 119.048L310.515 119.051L310.658 118.912ZM327.266 118.912L327.123 118.773L327.121 118.775L327.266 118.912ZM290.794 109.12C290.794 103.641 291.814 98.8402 293.846 94.7123L293.487 94.5357C291.423 98.7278 290.394 103.591 290.394 109.12H290.794ZM293.845 94.7145C295.942 90.5835 298.766 87.4124 302.316 85.1936L302.104 84.8544C298.486 87.1156 295.615 90.3445 293.488 94.5335L293.845 94.7145ZM302.316 85.1936C305.867 82.9744 309.83 81.864 314.21 81.864V81.464C309.759 81.464 305.722 82.5936 302.104 84.8544L302.316 85.1936ZM314.21 81.864C317.959 81.864 321.221 82.6262 324.002 84.1436L324.194 83.7924C321.344 82.2378 318.014 81.464 314.21 81.464V81.864ZM324.004 84.1445C326.856 85.6657 329.037 87.6584 330.552 90.1208L330.893 89.9112C329.336 87.3816 327.1 85.3423 324.192 83.7915L324.004 84.1445ZM330.922 90.016V82.432H330.522V90.016H330.922ZM330.722 82.632H347.138V82.232H330.722V82.632ZM346.938 82.432V136H347.338V82.432H346.938ZM347.138 135.8H330.722V136.2H347.138V135.8ZM330.922 136V128.416H330.522V136H330.922ZM330.554 128.308C328.974 130.772 326.761 132.766 323.908 134.288L324.096 134.64C327.003 133.09 329.27 131.052 330.891 128.524L330.554 128.308ZM323.906 134.288C321.125 135.806 317.863 136.568 314.114 136.568V136.968C317.918 136.968 321.248 136.194 324.098 134.64L323.906 134.288ZM314.114 136.568C309.799 136.568 305.867 135.458 302.316 133.238L302.104 133.578C305.721 135.838 309.726 136.968 314.114 136.968V136.568ZM302.318 133.24C298.767 130.957 295.942 127.753 293.845 123.621L293.488 123.803C295.614 127.991 298.485 131.251 302.102 133.576L302.318 133.24ZM293.846 123.625C291.813 119.432 290.794 114.599 290.794 109.12H290.394C290.394 114.649 291.423 119.544 293.486 123.799L293.846 123.625ZM330.922 109.216C330.922 105.081 329.758 101.794 327.41 99.3805L327.123 99.6595C329.382 101.982 330.522 105.159 330.522 109.216H330.922ZM327.412 99.3826C325.134 96.9746 322.329 95.768 319.01 95.768V96.168C322.219 96.168 324.919 97.3294 327.121 99.6574L327.412 99.3826ZM319.01 95.768C315.692 95.768 312.856 96.9744 310.515 99.3805L310.802 99.6595C313.068 97.3296 315.801 96.168 319.01 96.168V95.768ZM310.515 99.3806C308.229 101.731 307.098 104.987 307.098 109.12H307.498C307.498 105.061 308.607 101.917 310.802 99.6594L310.515 99.3806ZM307.098 109.12C307.098 113.254 308.229 116.57 310.511 119.047L310.805 118.777C308.607 116.39 307.498 113.178 307.498 109.12H307.098ZM310.515 119.051C312.856 121.458 315.692 122.664 319.01 122.664V122.264C315.801 122.264 313.068 121.102 310.802 118.773L310.515 119.051ZM319.01 122.664C322.329 122.664 325.134 121.457 327.412 119.049L327.121 118.775C324.919 121.103 322.219 122.264 319.01 122.264V122.664ZM327.41 119.051C329.758 116.638 330.922 113.351 330.922 109.216H330.522C330.522 113.273 329.382 116.45 327.123 118.773L327.41 119.051ZM413.735 82.432L413.919 82.5103L414.037 82.232H413.735V82.432ZM380.135 161.44V161.64H380.267L380.319 161.518L380.135 161.44ZM362.471 161.44L362.288 161.358L362.161 161.64H362.471V161.44ZM374.759 134.176L374.941 134.258L374.977 134.179L374.943 134.098L374.759 134.176ZM352.966 82.432V82.232H352.665L352.782 82.5096L352.966 82.432ZM371.303 82.432L371.49 82.3627L371.442 82.232H371.303V82.432ZM383.687 115.936L383.499 116.005L383.687 116.515L383.874 116.005L383.687 115.936ZM395.975 82.432V82.232H395.835L395.787 82.3631L395.975 82.432ZM413.55 82.3537L379.95 161.362L380.319 161.518L413.919 82.5103L413.55 82.3537ZM380.135 161.24H362.471V161.64H380.135V161.24ZM362.653 161.522L374.941 134.258L374.576 134.094L362.288 161.358L362.653 161.522ZM374.943 134.098L353.151 82.3544L352.782 82.5096L374.574 134.254L374.943 134.098ZM352.966 82.632H371.303V82.232H352.966V82.632ZM371.115 82.5013L383.499 116.005L383.874 115.867L371.49 82.3627L371.115 82.5013ZM383.874 116.005L396.162 82.5009L395.787 82.3631L383.499 115.867L383.874 116.005ZM395.975 82.632H413.735V82.232H395.975V82.632ZM495.991 68.608H496.191V68.408H495.991V68.608ZM495.991 136V136.2H496.191V136H495.991ZM479.575 136H479.375V136.2H479.575V136ZM479.575 95.584H479.775L479.387 95.5141L479.575 95.584ZM464.503 136V136.2H464.642L464.69 136.07L464.503 136ZM451.255 136L451.067 136.07L451.116 136.2H451.255V136ZM436.087 95.488L436.274 95.4179L435.887 95.488H436.087ZM436.087 136V136.2H436.287V136H436.087ZM419.671 136H419.471V136.2H419.671V136ZM419.671 68.608V68.408H419.471V68.608H419.671ZM439.063 68.608L439.248 68.5329L439.197 68.408H439.063V68.608ZM457.975 115.264L457.789 115.339L457.976 115.799L458.16 115.338L457.975 115.264ZM476.695 68.608V68.408H476.56L476.509 68.5335L476.695 68.608ZM495.791 68.608V136H496.191V68.608H495.791ZM495.991 135.8H479.575V136.2H495.991V135.8ZM479.775 136V95.584H479.375V136H479.775ZM479.387 95.5141L464.315 135.93L464.69 136.07L479.762 95.6539L479.387 95.5141ZM464.503 135.8H451.255V136.2H464.503V135.8ZM451.442 135.93L436.274 95.4179L435.899 95.5581L451.067 136.07L451.442 135.93ZM435.887 95.488V136H436.287V95.488H435.887ZM436.087 135.8H419.671V136.2H436.087V135.8ZM419.871 136V68.608H419.471V136H419.871ZM419.671 68.808H439.063V68.408H419.671V68.808ZM438.877 68.6831L457.789 115.339L458.16 115.189L439.248 68.5329L438.877 68.6831ZM458.16 115.338L476.88 68.6825L476.509 68.5335L457.789 115.19L458.16 115.338ZM476.695 68.808H495.991V68.408H476.695V68.808ZM558.004 113.152V113.352H558.182L558.202 113.175L558.004 113.152ZM520.852 113.152V112.952H520.636L520.652 113.167L520.852 113.152ZM524.02 120.832L523.881 120.976L523.886 120.981L524.02 120.832ZM539.572 118.24V118.04H539.444L539.39 118.156L539.572 118.24ZM557.044 118.24L557.238 118.289L557.301 118.04H557.044V118.24ZM552.148 127.744L551.995 127.615L551.993 127.617L552.148 127.744ZM543.412 134.368L543.495 134.55L543.412 134.368ZM517.588 133.408L517.492 133.583L517.492 133.583L517.588 133.408ZM507.988 123.808L508.163 123.711L508.163 123.711L507.988 123.808ZM507.892 94.624L507.717 94.5271L507.716 94.5292L507.892 94.624ZM517.492 85.024L517.588 85.1995L517.588 85.1995L517.492 85.024ZM545.428 84.928L545.333 85.104L545.333 85.104L545.428 84.928ZM554.836 94.24L554.661 94.3371L554.662 94.3392L554.836 94.24ZM541.492 104.032V104.232H541.692V104.032H541.492ZM538.612 97.312L538.743 97.1609L538.743 97.1609L538.612 97.312ZM524.404 97.216L524.276 97.0623L524.273 97.0645L524.404 97.216ZM520.948 104.032L520.75 104.002L520.715 104.232H520.948V104.032ZM558.092 108.352C558.092 109.88 557.996 111.472 557.805 113.129L558.202 113.175C558.395 111.504 558.492 109.896 558.492 108.352H558.092ZM558.004 112.952H520.852V113.352H558.004V112.952ZM520.652 113.167C520.911 116.529 521.98 119.141 523.881 120.976L524.159 120.688C522.347 118.939 521.305 116.431 521.051 113.137L520.652 113.167ZM523.886 120.981C525.845 122.744 528.23 123.624 531.028 123.624V123.224C528.322 123.224 526.034 122.376 524.154 120.683L523.886 120.981ZM531.028 123.624C533.104 123.624 534.878 123.186 536.339 122.299C537.802 121.412 538.939 120.083 539.753 118.324L539.39 118.156C538.604 119.853 537.517 121.116 536.132 121.957C534.746 122.798 533.048 123.224 531.028 123.224V123.624ZM539.572 118.44H557.044V118.04H539.572V118.44ZM556.85 118.191C555.961 121.681 554.344 124.822 551.995 127.615L552.301 127.873C554.688 125.034 556.334 121.839 557.238 118.289L556.85 118.191ZM551.993 127.617C549.71 130.408 546.823 132.598 543.329 134.186L543.495 134.55C547.041 132.938 549.978 130.712 552.303 127.871L551.993 127.617ZM543.329 134.186C539.838 135.773 535.931 136.568 531.604 136.568V136.968C535.981 136.968 539.945 136.163 543.495 134.55L543.329 134.186ZM531.604 136.568C526.385 136.568 521.747 135.455 517.684 133.233L517.492 133.583C521.621 135.841 526.326 136.968 531.604 136.968V136.568ZM517.684 133.233C513.622 131.011 510.449 127.839 508.163 123.711L507.813 123.905C510.135 128.097 513.362 131.325 517.492 133.583L517.684 133.233ZM508.163 123.711C505.878 119.585 504.732 114.756 504.732 109.216H504.332C504.332 114.812 505.49 119.711 507.813 123.905L508.163 123.711ZM504.732 109.216C504.732 103.675 505.846 98.8449 508.068 94.7188L507.716 94.5292C505.457 98.7231 504.332 103.621 504.332 109.216H504.732ZM508.067 94.7209C510.353 90.5934 513.526 87.4209 517.588 85.1995L517.396 84.8485C513.266 87.1071 510.039 90.3346 507.717 94.5271L508.067 94.7209ZM517.588 85.1995C521.65 82.9777 526.321 81.864 531.604 81.864V81.464C526.263 81.464 521.525 82.5903 517.396 84.8485L517.588 85.1995ZM531.604 81.864C536.759 81.864 541.334 82.9457 545.333 85.104L545.523 84.752C541.458 82.5583 536.816 81.464 531.604 81.464V81.864ZM545.333 85.104C549.331 87.2617 552.439 90.3383 554.661 94.3371L555.011 94.1429C552.752 90.0777 549.589 86.9463 545.523 84.752L545.333 85.104ZM554.662 94.3392C556.946 98.3365 558.092 103.005 558.092 108.352H558.492C558.492 102.947 557.333 98.2075 555.009 94.1408L554.662 94.3392ZM541.692 104.032C541.692 101.165 540.712 98.8672 538.743 97.1609L538.481 97.4631C540.352 99.0848 541.292 101.267 541.292 104.032H541.692ZM538.743 97.1609C536.782 95.4611 534.333 94.616 531.412 94.616V95.016C534.25 95.016 536.602 95.8349 538.481 97.4631L538.743 97.1609ZM531.412 94.616C528.618 94.616 526.235 95.4293 524.276 97.0624L524.532 97.3696C526.412 95.8027 528.701 95.016 531.412 95.016V94.616ZM524.273 97.0645C522.374 98.702 521.204 101.021 520.75 104.002L521.145 104.062C521.588 101.155 522.722 98.93 524.534 97.3675L524.273 97.0645ZM520.948 104.232H541.492V103.832H520.948V104.232ZM583.368 123.328H583.168V123.528H583.368V123.328ZM604.872 123.328H605.072V123.128H604.872V123.328ZM604.872 136V136.2H605.072V136H604.872ZM566.952 136H566.752V136.2H566.952V136ZM566.952 68.608V68.408H566.752V68.608H566.952ZM583.368 68.608H583.568V68.408H583.368V68.608ZM583.368 123.528H604.872V123.128H583.368V123.528ZM604.672 123.328V136H605.072V123.328H604.672ZM604.872 135.8H566.952V136.2H604.872V135.8ZM567.152 136V68.608H566.752V136H567.152ZM566.952 68.808H583.368V68.408H566.952V68.808ZM583.168 68.608V123.328H583.568V68.608H583.168ZM612.51 94.624L612.332 94.5335L612.331 94.5357L612.51 94.624ZM621.054 85.024L621.16 85.1936L621.16 85.1936L621.054 85.024ZM642.942 83.968L642.846 84.1436L642.848 84.1445L642.942 83.968ZM649.566 90.016L649.396 90.1208L649.766 90.7226V90.016H649.566ZM649.566 82.432V82.232H649.366V82.432H649.566ZM665.982 82.432H666.182V82.232H665.982V82.432ZM665.982 136V136.2H666.182V136H665.982ZM649.566 136H649.366V136.2H649.566V136ZM649.566 128.416H649.766V127.733L649.398 128.308L649.566 128.416ZM642.846 134.464L642.752 134.288L642.75 134.288L642.846 134.464ZM621.054 133.408L620.946 133.576L620.948 133.578L621.054 133.408ZM612.51 123.712L612.33 123.799L612.332 123.803L612.51 123.712ZM646.11 99.52L645.965 99.6575L645.967 99.6595L646.11 99.52ZM629.502 99.52L629.359 99.3805L629.359 99.3806L629.502 99.52ZM629.502 118.912L629.355 119.048L629.359 119.051L629.502 118.912ZM646.11 118.912L645.967 118.773L645.965 118.775L646.11 118.912ZM609.638 109.12C609.638 103.641 610.657 98.8402 612.689 94.7123L612.331 94.5357C610.267 98.7278 609.238 103.591 609.238 109.12H609.638ZM612.688 94.7145C614.786 90.5835 617.61 87.4124 621.16 85.1936L620.948 84.8544C617.33 87.1156 614.458 90.3445 612.332 94.5335L612.688 94.7145ZM621.16 85.1936C624.711 82.9744 628.674 81.864 633.054 81.864V81.464C628.602 81.464 624.565 82.5936 620.948 84.8544L621.16 85.1936ZM633.054 81.864C636.802 81.864 640.064 82.6262 642.846 84.1436L643.038 83.7924C640.188 82.2378 636.858 81.464 633.054 81.464V81.864ZM642.848 84.1445C645.7 85.6657 647.88 87.6584 649.396 90.1208L649.736 89.9112C648.18 87.3816 645.944 85.3423 643.036 83.7915L642.848 84.1445ZM649.766 90.016V82.432H649.366V90.016H649.766ZM649.566 82.632H665.982V82.232H649.566V82.632ZM665.782 82.432V136H666.182V82.432H665.782ZM665.982 135.8H649.566V136.2H665.982V135.8ZM649.766 136V128.416H649.366V136H649.766ZM649.398 128.308C647.818 130.772 645.605 132.766 642.752 134.288L642.94 134.64C645.847 133.09 648.114 131.052 649.734 128.524L649.398 128.308ZM642.75 134.288C639.968 135.806 636.706 136.568 632.958 136.568V136.968C636.762 136.968 640.092 136.194 642.942 134.64L642.75 134.288ZM632.958 136.568C628.642 136.568 624.711 135.458 621.16 133.238L620.948 133.578C624.565 135.838 628.57 136.968 632.958 136.968V136.568ZM621.162 133.24C617.611 130.957 614.786 127.753 612.688 123.621L612.332 123.803C614.458 127.991 617.329 131.251 620.946 133.576L621.162 133.24ZM612.69 123.625C610.657 119.432 609.638 114.599 609.638 109.12H609.238C609.238 114.649 610.267 119.544 612.33 123.799L612.69 123.625ZM649.766 109.216C649.766 105.081 648.602 101.794 646.253 99.3805L645.967 99.6595C648.226 101.982 649.366 105.159 649.366 109.216H649.766ZM646.255 99.3826C643.977 96.9746 641.173 95.768 637.854 95.768V96.168C641.063 96.168 643.763 97.3294 645.965 99.6574L646.255 99.3826ZM637.854 95.768C634.535 95.768 631.7 96.9744 629.359 99.3805L629.645 99.6595C631.912 97.3296 634.645 96.168 637.854 96.168V95.768ZM629.359 99.3806C627.073 101.731 625.942 104.987 625.942 109.12H626.342C626.342 105.061 627.451 101.917 629.645 99.6594L629.359 99.3806ZM625.942 109.12C625.942 113.254 627.073 116.57 629.355 119.047L629.649 118.777C627.451 116.39 626.342 113.178 626.342 109.12H625.942ZM629.359 119.051C631.7 121.458 634.535 122.664 637.854 122.664V122.264C634.645 122.264 631.912 121.102 629.645 118.773L629.359 119.051ZM637.854 122.664C641.173 122.664 643.977 121.457 646.255 119.049L645.965 118.775C643.763 121.103 641.063 122.264 637.854 122.264V122.664ZM646.253 119.051C648.602 116.638 649.766 113.351 649.766 109.216H649.366C649.366 113.273 648.226 116.45 645.967 118.773L646.253 119.051ZM707.714 122.08H707.914V121.88H707.714V122.08ZM707.714 136V136.2H707.914V136H707.714ZM685.442 131.68L685.31 131.83L685.311 131.831L685.442 131.68ZM680.45 96.064H680.65V95.864H680.45V96.064ZM673.922 96.064H673.722V96.264H673.922V96.064ZM673.922 82.432V82.232H673.722V82.432H673.922ZM680.45 82.432V82.632H680.65V82.432H680.45ZM680.45 69.376V69.176H680.25V69.376H680.45ZM696.866 69.376H697.066V69.176H696.866V69.376ZM696.866 82.432H696.666V82.632H696.866V82.432ZM707.618 82.432H707.818V82.232H707.618V82.432ZM707.618 96.064V96.264H707.818V96.064H707.618ZM696.866 96.064V95.864H696.666V96.064H696.866ZM698.018 121.024L697.883 121.171L697.883 121.171L698.018 121.024ZM707.514 122.08V136H707.914V122.08H707.514ZM707.714 135.8H699.362V136.2H707.714V135.8ZM699.362 135.8C693.441 135.8 688.854 134.368 685.573 131.529L685.311 131.831C688.687 134.752 693.379 136.2 699.362 136.2V135.8ZM685.575 131.53C682.307 128.639 680.65 123.939 680.65 117.376H680.25C680.25 123.997 681.922 128.833 685.31 131.83L685.575 131.53ZM680.65 117.376V96.064H680.25V117.376H680.65ZM680.45 95.864H673.922V96.264H680.45V95.864ZM674.122 96.064V82.432H673.722V96.064H674.122ZM673.922 82.632H680.45V82.232H673.922V82.632ZM680.65 82.432V69.376H680.25V82.432H680.65ZM680.45 69.576H696.866V69.176H680.45V69.576ZM696.666 69.376V82.432H697.066V69.376H696.666ZM696.866 82.632H707.618V82.232H696.866V82.632ZM707.418 82.432V96.064H707.818V82.432H707.418ZM707.618 95.864H696.866V96.264H707.618V95.864ZM696.666 96.064V117.568H697.066V96.064H696.666ZM696.666 117.568C696.666 119.194 697.056 120.413 697.883 121.171L698.153 120.877C697.445 120.227 697.066 119.142 697.066 117.568H696.666ZM697.883 121.171C698.707 121.926 700.049 122.28 701.858 122.28V121.88C700.083 121.88 698.866 121.53 698.153 120.877L697.883 121.171ZM701.858 122.28H707.714V121.88H701.858V122.28ZM767.066 113.152V113.352H767.245L767.265 113.175L767.066 113.152ZM729.914 113.152V112.952H729.698L729.715 113.167L729.914 113.152ZM733.082 120.832L732.943 120.976L732.948 120.981L733.082 120.832ZM748.634 118.24V118.04H748.506L748.453 118.156L748.634 118.24ZM766.106 118.24L766.3 118.289L766.364 118.04H766.106V118.24ZM761.21 127.744L761.057 127.615L761.055 127.617L761.21 127.744ZM752.474 134.368L752.557 134.55L752.474 134.368ZM726.65 133.408L726.554 133.583L726.554 133.583L726.65 133.408ZM717.05 123.808L717.225 123.711L717.225 123.711L717.05 123.808ZM716.954 94.624L716.779 94.5271L716.778 94.5292L716.954 94.624ZM726.554 85.024L726.65 85.1995L726.65 85.1995L726.554 85.024ZM754.49 84.928L754.395 85.104L754.395 85.104L754.49 84.928ZM763.898 94.24L763.723 94.3371L763.725 94.3392L763.898 94.24ZM750.554 104.032V104.232H750.754V104.032H750.554ZM747.674 97.312L747.805 97.1609L747.805 97.1609L747.674 97.312ZM733.466 97.216L733.338 97.0623L733.336 97.0645L733.466 97.216ZM730.01 104.032L729.813 104.002L729.778 104.232H730.01V104.032ZM767.154 108.352C767.154 109.88 767.059 111.472 766.868 113.129L767.265 113.175C767.458 111.504 767.554 109.896 767.554 108.352H767.154ZM767.066 112.952H729.914V113.352H767.066V112.952ZM729.715 113.167C729.973 116.529 731.043 119.141 732.943 120.976L733.221 120.688C731.41 118.939 730.367 116.431 730.114 113.137L729.715 113.167ZM732.948 120.981C734.908 122.744 737.292 123.624 740.09 123.624V123.224C737.384 123.224 735.097 122.376 733.216 120.683L732.948 120.981ZM740.09 123.624C742.166 123.624 743.94 123.186 745.402 122.299C746.865 121.412 748.002 120.083 748.816 118.324L748.453 118.156C747.667 119.853 746.58 121.116 745.195 121.957C743.808 122.798 742.11 123.224 740.09 123.224V123.624ZM748.634 118.44H766.106V118.04H748.634V118.44ZM765.912 118.191C765.024 121.681 763.406 124.822 761.057 127.615L761.363 127.873C763.75 125.034 765.397 121.839 766.3 118.289L765.912 118.191ZM761.055 127.617C758.772 130.408 755.885 132.598 752.391 134.186L752.557 134.55C756.103 132.938 759.04 130.712 761.365 127.871L761.055 127.617ZM752.391 134.186C748.901 135.773 744.993 136.568 740.666 136.568V136.968C745.043 136.968 749.008 136.163 752.557 134.55L752.391 134.186ZM740.666 136.568C735.448 136.568 730.809 135.455 726.746 133.233L726.554 133.583C730.683 135.841 735.389 136.968 740.666 136.968V136.568ZM726.746 133.233C722.684 131.011 719.511 127.839 717.225 123.711L716.875 123.905C719.197 128.097 722.424 131.325 726.554 133.583L726.746 133.233ZM717.225 123.711C714.94 119.585 713.794 114.756 713.794 109.216H713.394C713.394 114.812 714.552 119.711 716.875 123.905L717.225 123.711ZM713.794 109.216C713.794 103.675 714.909 98.8449 717.13 94.7188L716.778 94.5292C714.52 98.7231 713.394 103.621 713.394 109.216H713.794ZM717.129 94.7209C719.415 90.5934 722.588 87.4209 726.65 85.1995L726.458 84.8485C722.328 87.1071 719.101 90.3346 716.779 94.5271L717.129 94.7209ZM726.65 85.1995C730.713 82.9777 735.383 81.864 740.666 81.864V81.464C735.325 81.464 730.588 82.5903 726.458 84.8485L726.65 85.1995ZM740.666 81.864C745.822 81.864 750.396 82.9457 754.395 85.104L754.585 84.752C750.52 82.5583 745.879 81.464 740.666 81.464V81.864ZM754.395 85.104C758.393 87.2617 761.502 90.3383 763.723 94.3371L764.073 94.1429C761.815 90.0777 758.651 86.9463 754.585 84.752L754.395 85.104ZM763.725 94.3392C766.009 98.3365 767.154 103.005 767.154 108.352H767.554C767.554 102.947 766.396 98.2075 764.072 94.1408L763.725 94.3392ZM750.754 104.032C750.754 101.165 749.774 98.8672 747.805 97.1609L747.543 97.4631C749.414 99.0848 750.354 101.267 750.354 104.032H750.754ZM747.805 97.1609C745.844 95.4611 743.396 94.616 740.474 94.616V95.016C743.313 95.016 745.664 95.8349 747.543 97.4631L747.805 97.1609ZM740.474 94.616C737.681 94.616 735.298 95.4293 733.338 97.0624L733.594 97.3696C735.475 95.8027 737.764 95.016 740.474 95.016V94.616ZM733.336 97.0645C731.436 98.702 730.266 101.021 729.813 104.002L730.208 104.062C730.65 101.155 731.784 98.93 733.597 97.3675L733.336 97.0645ZM730.01 104.232H750.554V103.832H730.01V104.232ZM792.431 91.36H792.231V92.0328L792.598 91.4693L792.431 91.36ZM799.631 84.448L799.731 84.6212L799.733 84.6195L799.631 84.448ZM809.231 81.856H809.431V81.656H809.231V81.856ZM809.231 99.232V99.432H809.431V99.232H809.231ZM795.503 101.92L795.631 102.073L795.634 102.071L795.503 101.92ZM792.431 136V136.2H792.631V136H792.431ZM776.015 136H775.815V136.2H776.015V136ZM776.015 82.432V82.232H775.815V82.432H776.015ZM792.431 82.432H792.631V82.232H792.431V82.432ZM792.598 91.4693C794.502 88.55 796.879 86.2686 799.731 84.6212L799.53 84.2748C796.622 85.9554 794.199 88.282 792.263 91.2507L792.598 91.4693ZM799.733 84.6195C802.581 82.9111 805.745 82.056 809.231 82.056V81.656C805.676 81.656 802.44 82.5289 799.528 84.2765L799.733 84.6195ZM809.031 81.856V99.232H809.431V81.856H809.031ZM809.231 99.032H804.719V99.432H809.231V99.032ZM804.719 99.032C800.598 99.032 797.47 99.9328 795.371 101.769L795.634 102.071C797.631 100.323 800.647 99.432 804.719 99.432V99.032ZM795.374 101.767C793.258 103.552 792.231 106.698 792.231 111.136H792.631C792.631 106.742 793.651 103.744 795.631 102.073L795.374 101.767ZM792.231 111.136V136H792.631V111.136H792.231ZM792.431 135.8H776.015V136.2H792.431V135.8ZM776.215 136V82.432H775.815V136H776.215ZM776.015 82.632H792.431V82.232H776.015V82.632ZM792.231 82.432V91.36H792.631V82.432H792.231Z" fill="black"/>
<g clip-path="url(#clip0)">
<path d="M166.07 157.287V183.37C166.07 187.737 162.532 191.275 158.169 191.275H138.958C135.74 191.275 132.841 189.325 131.634 186.338L129.912 182.092L119.864 157.287H166.07Z" fill="#FFCBBE"/>
<path d="M110.136 157.287L100.087 182.092L98.3653 186.338C97.1592 189.325 94.2602 191.275 91.0415 191.275H71.831C67.468 191.275 63.9296 187.737 63.9296 183.37V157.287H110.136Z" fill="#FFCBBE"/>
<path d="M82.8376 191.277H71.8302C67.4672 191.277 63.9288 187.739 63.9288 183.372V157.289H74.9326V183.372C74.9326 187.739 78.471 191.277 82.8376 191.277V191.277Z" fill="#EAAC9D"/>
<path d="M63.9302 157.287H110.136L100.087 182.092C96.2221 182.008 92.3532 181.888 88.4842 181.736C79.3476 181.376 70.9012 178.321 63.9298 173.34V157.287H63.9302Z" fill="#EAAC9D"/>
<path d="M166.07 157.287V173.34C159.099 178.321 150.652 181.376 141.516 181.736C137.647 181.888 133.778 182.008 129.913 182.092L119.864 157.287H166.07V157.287Z" fill="#EAAC9D"/>
<path d="M147.946 191.275H138.958C135.739 191.275 132.84 189.324 131.634 186.338L129.912 182.091L119.864 157.287H128.852L138.9 182.091L140.622 186.338C141.828 189.324 144.727 191.275 147.946 191.275Z" fill="#EAAC9D"/>
<path d="M185.405 115.683C185.38 121.422 185.251 127.166 185.027 132.906C184.093 156.504 165.114 175.417 141.516 176.343C123.84 177.04 106.16 177.04 88.4842 176.343C64.886 175.417 45.9069 156.504 44.9733 132.906C44.7491 127.166 44.6205 121.422 44.5954 115.683C44.4334 80.8454 71.5882 52.2004 105.969 50.1294V62.5261C105.969 65.3731 108.277 67.6847 111.124 67.6847H118.877C121.724 67.6847 124.031 65.3731 124.031 62.5261V50.1294C158.412 52.2004 185.566 80.8454 185.405 115.683Z" fill="#FFCBBE"/>
<path d="M99.1294 50.9057C84.0517 61.3269 73.4562 86.5272 73.535 115.832C73.5473 121.958 73.6305 128.08 73.7715 134.205C74.2114 153.085 81.0303 169.154 90.6711 176.426C89.9405 176.401 89.2143 176.372 88.4838 176.343C64.8896 175.417 45.9065 156.505 44.9725 132.907C44.7484 127.167 44.6198 121.423 44.5947 115.683C44.4457 83.1904 68.0567 56.085 99.1294 50.9057V50.9057Z" fill="#EAAC9D"/>
<path d="M54.502 120.867C54.502 120.867 45.4831 107.161 44.1996 84.5291C43.8534 78.4273 49.1283 73.527 55.1868 74.332C64.0404 75.5087 77.2403 78.8862 90.9935 88.2113C90.9935 88.2113 72.6785 86.5282 72.6785 106.526" fill="#EAAC9D"/>
<path d="M175.498 120.867C175.498 120.867 184.517 107.161 185.8 84.5291C186.147 78.4273 180.872 73.527 174.813 74.332C165.96 75.5087 152.76 78.8862 139.007 88.2113" fill="#FFCBBE"/>
<path d="M124.348 117.968C118.116 117.764 111.884 117.764 105.652 117.968C96.5361 118.267 89.2839 125.657 89.0561 134.775C88.9987 137.076 88.9987 139.377 89.0561 141.677C89.2839 150.795 96.5361 158.185 105.652 158.484C111.884 158.688 118.116 158.688 124.348 158.484C133.464 158.185 140.716 150.795 140.944 141.677C141.001 139.377 141.001 137.076 140.944 134.775C140.716 125.657 133.464 118.267 124.348 117.968Z" fill="#FFDDCE"/>
<path d="M84.3906 64.588C99.2645 64.588 111.322 52.5303 111.322 37.6563C111.322 22.7823 99.2645 10.7246 84.3906 10.7246C69.5166 10.7246 57.4589 22.7823 57.4589 37.6563C57.4589 52.5303 69.5166 64.588 84.3906 64.588Z" fill="#FFD064"/>
<path d="M184.556 74.8381C181.829 72.3093 178.148 71.1388 174.454 71.631C173.811 71.7164 173.141 71.8152 172.45 71.9253C160.439 57.452 142.945 48.5432 124.195 47.4141C123.44 47.3687 122.71 47.6357 122.163 48.1502C121.616 48.6649 121.306 49.3828 121.306 50.1337V62.5253C121.306 63.8673 120.216 64.9593 118.876 64.9593H111.124C109.783 64.9593 108.693 63.8673 108.693 62.5253V54.6232C112.063 49.8111 114.048 43.9622 114.048 37.6549C114.048 21.3031 100.743 8 84.3895 8C68.0377 8 54.7346 21.3031 54.7346 37.6549C54.7346 39.1385 54.844 40.6149 55.0594 42.043C55.2836 43.531 56.6699 44.554 58.1601 44.3306C59.6481 44.1061 60.6722 42.718 60.4476 41.23C60.2729 40.0704 60.1839 38.8675 60.1839 37.6549C60.1839 24.3078 71.0425 13.4493 84.3895 13.4493C97.7384 13.4493 108.599 24.3078 108.599 37.6549C108.599 51.0041 97.7384 61.8641 84.3895 61.8641C75.8992 61.8641 68.1776 57.536 63.735 50.2866C62.9485 49.0039 61.2716 48.6006 59.9885 49.3871C58.7057 50.1733 58.3028 51.8509 59.089 53.1337C61.3137 56.7636 64.2102 59.7949 67.568 62.1108C63.9072 65.0276 60.5559 68.3139 57.5584 71.9264C56.8649 71.8156 56.1918 71.7164 55.5455 71.6307C51.8531 71.1395 48.1705 72.3089 45.4433 74.8377C42.7125 77.3695 41.2677 80.958 41.4788 84.6831C41.8017 90.3768 42.5966 95.5148 43.6145 100.038C42.4368 105.151 41.8461 110.413 41.8708 115.693C41.8958 121.402 42.0237 127.23 42.2507 133.016C42.7292 145.111 47.7204 156.49 56.3048 165.055C57.8505 166.597 59.4889 168.021 61.2051 169.325V183.37C61.2051 189.232 65.9718 194 71.8312 194H91.0416C95.3959 194 99.2624 191.393 100.89 187.362L104.078 179.493C107.716 179.551 111.357 179.588 115 179.588C118.642 179.588 122.283 179.551 125.921 179.493L129.108 187.359C130.737 191.393 134.604 194 138.958 194H158.169C164.028 194 168.795 189.232 168.795 183.371V169.339C171.131 167.558 173.324 165.551 175.343 163.325C176.354 162.211 176.27 160.488 175.155 159.477C174.041 158.465 172.317 158.549 171.307 159.664C163.552 168.212 152.935 173.168 141.408 173.62C123.885 174.311 106.115 174.311 88.5898 173.62C77.8588 173.198 67.7595 168.787 60.1527 161.197C52.5437 153.605 48.1192 143.52 47.6953 132.801C47.4708 127.079 47.3444 121.316 47.3197 115.668C47.3146 114.597 47.3425 113.526 47.3919 112.458C49.7947 118.606 52.0376 122.079 52.2251 122.364C52.7482 123.159 53.6157 123.59 54.5014 123.59C55.014 123.59 55.5331 123.446 55.9938 123.143C57.2507 122.319 57.602 120.631 56.7799 119.373C56.6938 119.241 48.1414 105.92 46.919 84.3754C46.8002 82.2778 47.6121 80.2583 49.1477 78.8346C50.6804 77.4138 52.75 76.757 54.8269 77.0334C63.2384 78.1513 76.0758 81.3892 89.4639 90.4669C90.7088 91.3116 92.4032 90.9861 93.2482 89.7407C94.0925 88.4954 93.7677 86.801 92.522 85.9564C82.0714 78.8702 71.9202 75.1233 63.7009 73.1543C66.4556 70.1361 69.4996 67.4013 72.7866 64.9735C76.3867 66.4967 80.3149 67.3134 84.3895 67.3134C91.544 67.3134 98.1151 64.7668 103.244 60.5327V62.5253C103.244 66.872 106.778 70.4086 111.123 70.4086H118.876C123.221 70.4086 126.755 66.872 126.755 62.5253V53.0952C141.915 54.7216 155.998 61.8816 166.296 73.1546C158.077 75.1236 147.927 78.8709 137.477 85.9564C136.231 86.801 135.906 88.495 136.751 89.7407C137.596 90.9861 139.29 91.3116 140.535 90.4669C153.923 81.3892 166.76 78.1513 175.172 77.0334C177.249 76.7573 179.319 77.4141 180.851 78.8346C182.387 80.2579 183.199 82.2778 183.08 84.375C181.858 105.92 173.305 119.241 173.219 119.373C172.395 120.629 172.744 122.316 174 123.143C174.461 123.446 174.981 123.592 175.495 123.592C176.381 123.592 177.25 123.16 177.774 122.364C177.961 122.08 180.204 118.607 182.607 112.459C182.656 113.527 182.684 114.598 182.679 115.67C182.654 121.316 182.528 127.08 182.303 132.802C182.046 139.352 180.336 145.587 177.221 151.333C176.504 152.656 176.995 154.309 178.318 155.027C178.731 155.25 179.176 155.356 179.614 155.356C180.582 155.356 181.519 154.84 182.012 153.93C185.529 147.444 187.458 140.407 187.749 133.016C187.976 127.231 188.103 121.403 188.129 115.695C188.153 110.414 187.563 105.152 186.385 100.039C187.403 95.5162 188.198 90.3779 188.521 84.6842C188.732 80.9583 187.287 77.3702 184.556 74.8381V74.8381ZM141.623 179.065C149.386 178.76 156.783 176.643 163.345 172.935V183.37C163.345 186.227 161.023 188.551 158.169 188.551H138.958C136.837 188.551 134.954 187.282 134.16 185.315L131.752 179.373C135.049 179.292 138.341 179.194 141.623 179.065V179.065ZM98.2474 179.373L95.8388 185.318C95.0454 187.282 93.1628 188.551 91.0416 188.551H71.8312C68.9768 188.551 66.6544 186.227 66.6544 183.37V172.91C73.2443 176.629 80.6648 178.762 88.3762 179.065C91.6588 179.194 94.9513 179.292 98.2474 179.373Z" fill="black"/>
<path d="M169.681 104.565C170.143 104.869 170.663 105.014 171.177 105.014C172.062 105.014 172.932 104.583 173.455 103.787C173.589 103.583 176.743 98.7072 177.19 90.8374C177.288 89.0941 176.611 87.4142 175.333 86.2285C174.055 85.0438 172.33 84.4953 170.601 84.7256C167.531 85.1339 162.851 86.3117 157.995 89.6045C156.749 90.4491 156.425 92.1431 157.269 93.3888C158.114 94.6341 159.808 94.9596 161.053 94.115C165.029 91.4191 168.831 90.4585 171.319 90.1276C171.438 90.1131 171.542 90.1443 171.628 90.2246C171.716 90.3056 171.757 90.408 171.75 90.5294C171.393 96.8156 168.949 100.719 168.896 100.803C168.078 102.059 168.428 103.74 169.681 104.565V104.565Z" fill="black"/>
<path d="M58.6808 90.1272C61.1696 90.4582 64.9706 91.4183 68.9471 94.1146C70.1921 94.9592 71.8864 94.6337 72.7314 93.3884C73.5757 92.1431 73.2509 90.4487 72.0052 89.6041C67.1489 86.3113 62.4694 85.1336 59.3986 84.7252C57.6679 84.4949 55.9445 85.0431 54.6672 86.2281C53.3885 87.4139 52.7117 89.0937 52.8105 90.8374C53.257 98.7068 56.411 103.583 56.545 103.787C57.0685 104.582 57.9375 105.014 58.8235 105.014C59.3376 105.014 59.8574 104.868 60.3188 104.565C61.5758 103.738 61.9241 102.048 61.0973 100.791C61.0726 100.753 58.6092 96.8487 58.251 90.5286C58.2437 90.4073 58.2848 90.3045 58.3723 90.2235C58.4581 90.1443 58.5631 90.112 58.6808 90.1272V90.1272Z" fill="black"/>
<path d="M124.437 115.245C118.175 115.039 111.825 115.039 105.563 115.245C95.0437 115.59 86.597 124.138 86.3325 134.707C86.2744 137.042 86.2744 139.41 86.3325 141.746C86.597 152.314 95.0437 160.863 105.563 161.208C108.694 161.311 111.847 161.362 115 161.362C118.154 161.362 121.306 161.311 124.438 161.208C134.957 160.863 143.404 152.314 143.668 141.746C143.726 139.41 143.726 137.043 143.668 134.707C143.403 124.139 134.957 115.59 124.437 115.245V115.245ZM138.22 141.609C138.028 149.295 131.895 155.511 124.258 155.761C118.115 155.963 111.884 155.963 105.741 155.761C98.1048 155.511 91.9722 149.295 91.78 141.609C91.724 139.365 91.724 137.088 91.78 134.843C91.9718 127.158 98.1044 120.941 105.741 120.691C108.813 120.59 111.907 120.54 115 120.54C118.093 120.54 121.186 120.59 124.258 120.691C131.895 120.941 138.027 127.158 138.219 134.843C138.276 137.088 138.276 139.365 138.22 141.609Z" fill="black"/>
<path d="M108.155 132.885C106.649 132.885 105.43 134.105 105.43 135.609V141.401C105.43 142.906 106.649 144.126 108.155 144.126C109.66 144.126 110.879 142.906 110.879 141.401V135.609C110.879 134.105 109.66 132.885 108.155 132.885Z" fill="black"/>
<path d="M121.845 132.885C120.34 132.885 119.121 134.105 119.121 135.609V141.401C119.121 142.906 120.34 144.126 121.845 144.126C123.35 144.126 124.57 142.906 124.57 141.401V135.609C124.57 134.105 123.35 132.885 121.845 132.885Z" fill="black"/>
<path d="M77.258 134.203C79.8086 134.203 81.8833 130.758 81.8833 126.524C81.8833 122.29 79.8082 118.846 77.258 118.846C74.7078 118.846 72.6331 122.29 72.6331 126.524C72.6331 130.758 74.7078 134.203 77.258 134.203Z" fill="black"/>
<path d="M152.742 118.846C150.191 118.846 148.117 122.29 148.117 126.524C148.117 130.758 150.192 134.203 152.742 134.203C155.292 134.203 157.367 130.758 157.367 126.524C157.367 122.29 155.292 118.846 152.742 118.846Z" fill="black"/>
<path d="M84.1462 49.732C80.4625 49.7516 79.0083 49.6176 75.8913 47.9381C74.5665 47.2239 72.9142 47.7194 72.2004 49.0443C71.4866 50.3692 71.9817 52.0214 73.3066 52.7352C76.4842 54.4474 78.673 54.9839 81.4368 55.1314V56.8113C81.4368 58.316 82.6564 59.5359 84.1614 59.5359C85.6665 59.5359 86.886 58.316 86.886 56.8113V54.9364C92.696 53.8923 96.2344 49.6622 96.8174 45.4918C97.496 40.6365 94.3864 36.4664 88.895 34.868C85.4253 33.8577 81.5789 32.6316 79.3578 31.197C78.3228 30.5286 78.3308 29.4551 78.4274 28.8749C78.6308 27.6561 79.6317 26.159 81.8328 25.613C82.7214 25.3925 83.5508 25.2872 84.3158 25.2599C84.3365 25.2588 84.3576 25.2585 84.3783 25.2566C87.7398 25.156 89.8174 26.5964 89.9612 26.6992C91.1579 27.5904 92.8526 27.3524 93.7575 26.1616C94.6675 24.9635 94.4339 23.2542 93.2358 22.3439C93.0931 22.2356 90.7325 20.486 86.8857 19.9567V18.5003C86.8857 16.9956 85.6661 15.7757 84.1611 15.7757C82.656 15.7757 81.4365 16.9956 81.4365 18.5003V20.1242C81.1349 20.1827 80.8309 20.2466 80.5206 20.3236C76.5965 21.2972 73.6652 24.3019 73.0519 27.9783C72.5292 31.1146 73.8123 34.1018 76.4007 35.7736C78.6657 37.2369 81.8444 38.4906 87.371 40.0996C90.2395 40.9344 91.7151 42.6248 91.4202 44.7369C90.9708 47.9585 87.3369 49.7149 84.1462 49.732V49.732Z" fill="black"/>
</g>
<defs>
<clipPath id="clip0">
<rect width="186" height="186" fill="white" transform="translate(22 8)"/>
</clipPath>
</defs>
</svg>
