<svg width="564" height="202" viewBox="0 0 564 202" fill="none" xmlns="http://www.w3.org/2000/svg">
<rect x="42.5" y="4.5" width="184" height="193" rx="21.5" fill="white" stroke="black" stroke-width="9"/>
<path d="M183 56C187.243 56 191.313 54.3143 194.314 51.3137C197.314 48.3131 199 44.2435 199 40C199 35.7565 197.314 31.6869 194.314 28.6863C191.313 25.6857 187.243 24 183 24L183 40L183 56Z" fill="#CA3D3D"/>
<path d="M183 92C187.243 92 191.313 90.3143 194.314 87.3137C197.314 84.3131 199 80.2435 199 76C199 71.7565 197.314 67.6869 194.314 64.6863C191.313 61.6857 187.243 60 183 60L183 76L183 92Z" fill="#FF9A23"/>
<path d="M183 128C187.243 128 191.313 126.314 194.314 123.314C197.314 120.313 199 116.243 199 112C199 107.757 197.314 103.687 194.314 100.686C191.313 97.6857 187.243 96 183 96L183 112L183 128Z" fill="#FDE14D"/>
<path d="M183 164C187.243 164 191.313 162.314 194.314 159.314C197.314 156.313 199 152.243 199 148C199 143.757 197.314 139.687 194.314 136.686C191.313 133.686 187.243 132 183 132L183 148L183 164Z" fill="#79DB4B"/>
<rect x="178.5" y="4.5" width="47" height="193" rx="23.5" stroke="black" stroke-width="9"/>
<rect x="122" y="22" width="39" height="36" rx="9" fill="#3E4462"/>
<rect x="62" y="27" width="51" height="10" rx="5" fill="#3E4462"/>
<rect x="62" y="44" width="51" height="10" rx="5" fill="#3E4462"/>
<rect x="62" y="71" width="99" height="10" rx="5" fill="#3E4462"/>
<rect x="62" y="88" width="99" height="10" rx="5" fill="#3E4462"/>
<rect x="62" y="105" width="99" height="10" rx="5" fill="#3E4462"/>
<rect x="62" y="122" width="99" height="10" rx="5" fill="#3E4462"/>
<rect x="62" y="139" width="99" height="10" rx="5" fill="#3E4462"/>
<rect x="62" y="156" width="99" height="10" rx="5" fill="#3E4462"/>
<mask id="path-16-inside-1" fill="white">
<path fill-rule="evenodd" clip-rule="evenodd" d="M38.3805 202H228.332C230.042 198.522 231 194.621 231 190.5C231 175.864 218.912 164 204 164C203.281 164 202.568 164.028 201.863 164.082C196.312 157.252 188.502 153 179.85 153C173.51 153 167.621 155.283 162.743 159.191C155.557 149.375 143.948 143 130.85 143C115.139 143 101.57 152.172 95.2071 165.454C91.7649 163.88 87.9142 163 83.8499 163C76.2552 163 69.4067 166.074 64.5751 171L64.5 171C49.8645 171 38 182.864 38 197.5C38 199.034 38.1303 200.537 38.3805 202Z"/>
</mask>
<path fill-rule="evenodd" clip-rule="evenodd" d="M38.3805 202H228.332C230.042 198.522 231 194.621 231 190.5C231 175.864 218.912 164 204 164C203.281 164 202.568 164.028 201.863 164.082C196.312 157.252 188.502 153 179.85 153C173.51 153 167.621 155.283 162.743 159.191C155.557 149.375 143.948 143 130.85 143C115.139 143 101.57 152.172 95.2071 165.454C91.7649 163.88 87.9142 163 83.8499 163C76.2552 163 69.4067 166.074 64.5751 171L64.5 171C49.8645 171 38 182.864 38 197.5C38 199.034 38.1303 200.537 38.3805 202Z" fill="white"/>
<path d="M38.3805 202L30.4951 203.349L31.6328 210H38.3805V202ZM228.332 202V210H233.314L235.512 205.529L228.332 202ZM201.863 164.082L195.655 169.127L198.298 172.379L202.476 172.058L201.863 164.082ZM162.743 159.191L156.288 163.917L161.224 170.659L167.745 165.435L162.743 159.191ZM95.2071 165.454L91.8811 172.73L99.0269 175.996L102.422 168.911L95.2071 165.454ZM64.5751 171L64.5637 179L67.9294 179.005L70.2863 176.602L64.5751 171ZM64.5 171L64.5114 163H64.5V171ZM38.3805 210H228.332V194H38.3805V210ZM235.512 205.529C237.747 200.98 239 195.875 239 190.5H223C223 193.366 222.336 196.063 221.152 198.471L235.512 205.529ZM239 190.5C239 171.306 223.188 156 204 156V172C214.635 172 223 180.423 223 190.5H239ZM204 156C203.076 156 202.159 156.035 201.25 156.105L202.476 172.058C202.977 172.02 203.485 172 204 172V156ZM208.071 159.036C201.237 150.628 191.261 145 179.85 145V161C185.742 161 191.386 163.876 195.655 169.127L208.071 159.036ZM179.85 145C171.521 145 163.9 148.014 157.741 152.948L167.745 165.435C171.343 162.553 175.498 161 179.85 161V145ZM169.198 154.466C160.57 142.68 146.606 135 130.85 135V151C141.289 151 150.543 156.07 156.288 163.917L169.198 154.466ZM130.85 135C111.945 135 95.6356 146.044 87.9924 161.997L102.422 168.911C107.505 158.3 118.333 151 130.85 151V135ZM98.5331 158.178C94.0615 156.134 89.0779 155 83.8499 155V171C86.7506 171 89.4682 171.627 91.8811 172.73L98.5331 158.178ZM83.8499 155C74.0671 155 65.172 158.967 58.8639 165.398L70.2863 176.602C73.6414 173.182 78.4433 171 83.8499 171V155ZM64.5865 163L64.5114 163L64.4886 179L64.5637 179L64.5865 163ZM64.5 163C45.4462 163 30 178.446 30 197.5H46C46 187.283 54.2827 179 64.5 179V163ZM30 197.5C30 199.488 30.169 201.443 30.4951 203.349L46.266 200.651C46.0917 199.632 46 198.58 46 197.5H30Z" fill="black" mask="url(#path-16-inside-1)"/>
<path d="M292.368 62.608V130H275.952V62.608H292.368ZM301.001 103.216C301.001 97.648 302.121 92.784 304.361 88.624C306.665 84.464 309.833 81.264 313.865 79.024C317.961 76.784 322.633 75.664 327.881 75.664C334.601 75.664 340.201 77.424 344.681 80.944C349.225 84.464 352.201 89.424 353.609 95.824H336.137C334.665 91.728 331.817 89.68 327.593 89.68C324.585 89.68 322.185 90.864 320.393 93.232C318.601 95.536 317.705 98.864 317.705 103.216C317.705 107.568 318.601 110.928 320.393 113.296C322.185 115.6 324.585 116.752 327.593 116.752C331.817 116.752 334.665 114.704 336.137 110.608H353.609C352.201 116.88 349.225 121.808 344.681 125.392C340.137 128.976 334.537 130.768 327.881 130.768C322.633 130.768 317.961 129.648 313.865 127.408C309.833 125.168 306.665 121.968 304.361 117.808C302.121 113.648 301.001 108.784 301.001 103.216ZM386.774 130.768C381.526 130.768 376.79 129.648 372.566 127.408C368.406 125.168 365.11 121.968 362.678 117.808C360.31 113.648 359.126 108.784 359.126 103.216C359.126 97.712 360.342 92.88 362.773 88.72C365.206 84.496 368.534 81.264 372.758 79.024C376.982 76.784 381.718 75.664 386.966 75.664C392.214 75.664 396.95 76.784 401.174 79.024C405.398 81.264 408.726 84.496 411.158 88.72C413.59 92.88 414.806 97.712 414.806 103.216C414.806 108.72 413.558 113.584 411.062 117.808C408.63 121.968 405.27 125.168 400.982 127.408C396.758 129.648 392.022 130.768 386.774 130.768ZM386.774 116.56C389.91 116.56 392.566 115.408 394.742 113.104C396.982 110.8 398.102 107.504 398.102 103.216C398.102 98.928 397.014 95.632 394.838 93.328C392.726 91.024 390.102 89.872 386.966 89.872C383.766 89.872 381.11 91.024 378.998 93.328C376.886 95.568 375.83 98.864 375.83 103.216C375.83 107.504 376.854 110.8 378.902 113.104C381.014 115.408 383.638 116.56 386.774 116.56ZM456.155 75.856C462.427 75.856 467.419 77.904 471.131 82C474.907 86.032 476.795 91.6 476.795 98.704V130H460.475V100.912C460.475 97.328 459.547 94.544 457.691 92.56C455.835 90.576 453.339 89.584 450.203 89.584C447.067 89.584 444.571 90.576 442.715 92.56C440.859 94.544 439.931 97.328 439.931 100.912V130H423.515V76.432H439.931V83.536C441.595 81.168 443.835 79.312 446.651 77.968C449.467 76.56 452.635 75.856 456.155 75.856ZM509.994 130.768C505.322 130.768 501.162 129.968 497.514 128.368C493.866 126.768 490.986 124.592 488.874 121.84C486.762 119.024 485.578 115.888 485.322 112.432H501.546C501.738 114.288 502.602 115.792 504.138 116.944C505.674 118.096 507.562 118.672 509.802 118.672C511.85 118.672 513.418 118.288 514.506 117.52C515.658 116.688 516.234 115.632 516.234 114.352C516.234 112.816 515.434 111.696 513.834 110.992C512.234 110.224 509.642 109.392 506.058 108.496C502.218 107.6 499.018 106.672 496.458 105.712C493.898 104.688 491.69 103.12 489.834 101.008C487.978 98.832 487.05 95.92 487.05 92.272C487.05 89.2 487.882 86.416 489.546 83.92C491.274 81.36 493.77 79.344 497.034 77.872C500.362 76.4 504.298 75.664 508.842 75.664C515.562 75.664 520.842 77.328 524.682 80.656C528.586 83.984 530.826 88.4 531.402 93.904H516.234C515.978 92.048 515.146 90.576 513.738 89.488C512.394 88.4 510.602 87.856 508.362 87.856C506.442 87.856 504.97 88.24 503.946 89.008C502.922 89.712 502.41 90.704 502.41 91.984C502.41 93.52 503.21 94.672 504.81 95.44C506.474 96.208 509.034 96.976 512.49 97.744C516.458 98.768 519.69 99.792 522.186 100.816C524.682 101.776 526.858 103.376 528.714 105.616C530.634 107.792 531.626 110.736 531.69 114.448C531.69 117.584 530.794 120.4 529.002 122.896C527.274 125.328 524.746 127.248 521.418 128.656C518.154 130.064 514.346 130.768 509.994 130.768Z" fill="white"/>
<path d="M292.368 62.608H292.568V62.408H292.368V62.608ZM292.368 130V130.2H292.568V130H292.368ZM275.952 130H275.752V130.2H275.952V130ZM275.952 62.608V62.408H275.752V62.608H275.952ZM292.168 62.608V130H292.568V62.608H292.168ZM292.368 129.8H275.952V130.2H292.368V129.8ZM276.152 130V62.608H275.752V130H276.152ZM275.952 62.808H292.368V62.408H275.952V62.808ZM304.361 88.624L304.186 88.5271L304.184 88.5292L304.361 88.624ZM313.865 79.024L313.769 78.8485L313.767 78.8492L313.865 79.024ZM344.681 80.944L344.557 81.1013L344.558 81.1021L344.681 80.944ZM353.609 95.824V96.024H353.857L353.804 95.781L353.609 95.824ZM336.137 95.824L335.948 95.8916L335.996 96.024H336.137V95.824ZM320.393 93.232L320.55 93.3548L320.552 93.3527L320.393 93.232ZM320.393 113.296L320.233 113.417L320.235 113.419L320.393 113.296ZM336.137 110.608V110.408H335.996L335.948 110.54L336.137 110.608ZM353.609 110.608L353.804 110.652L353.858 110.408H353.609V110.608ZM344.681 125.392L344.557 125.235L344.557 125.235L344.681 125.392ZM313.865 127.408L313.767 127.583L313.769 127.583L313.865 127.408ZM304.361 117.808L304.184 117.903L304.186 117.905L304.361 117.808ZM301.201 103.216C301.201 97.6752 302.315 92.8449 304.537 88.7188L304.184 88.5292C301.926 92.7231 300.801 97.6208 300.801 103.216H301.201ZM304.535 88.7209C306.822 84.5926 309.963 81.4201 313.962 79.1988L313.767 78.8492C309.702 81.1079 306.507 84.3354 304.186 88.5271L304.535 88.7209ZM313.96 79.1995C318.024 76.9775 322.662 75.864 327.881 75.864V75.464C322.603 75.464 317.897 76.5905 313.769 78.8485L313.96 79.1995ZM327.881 75.864C334.564 75.864 340.118 77.6137 344.557 81.1013L344.804 80.7867C340.283 77.2343 334.637 75.464 327.881 75.464V75.864ZM344.558 81.1021C349.06 84.5895 352.014 89.5059 353.413 95.867L353.804 95.781C352.387 89.3421 349.389 84.3385 344.803 80.7859L344.558 81.1021ZM353.609 95.624H336.137V96.024H353.609V95.624ZM336.325 95.7564C335.578 93.6795 334.477 92.1064 333.013 91.0536C331.549 90.0005 329.738 89.48 327.593 89.48V89.88C329.671 89.88 331.396 90.3835 332.78 91.3784C334.164 92.3736 335.223 93.8725 335.948 95.8916L336.325 95.7564ZM327.593 89.48C324.523 89.48 322.063 90.6926 320.233 93.1113L320.552 93.3527C322.306 91.0354 324.646 89.88 327.593 89.88V89.48ZM320.235 93.1092C318.405 95.4619 317.505 98.8404 317.505 103.216H317.905C317.905 98.8876 318.796 95.6101 320.55 93.3548L320.235 93.1092ZM317.505 103.216C317.505 107.592 318.405 111.001 320.233 113.417L320.552 113.175C318.796 110.855 317.905 107.544 317.905 103.216H317.505ZM320.235 113.419C322.066 115.773 324.525 116.952 327.593 116.952V116.552C324.644 116.552 322.303 115.427 320.55 113.173L320.235 113.419ZM327.593 116.952C329.738 116.952 331.549 116.431 333.013 115.378C334.477 114.326 335.578 112.752 336.325 110.676L335.948 110.54C335.223 112.56 334.164 114.058 332.78 115.054C331.396 116.049 329.671 116.552 327.593 116.552V116.952ZM336.137 110.808H353.609V110.408H336.137V110.808ZM353.413 110.564C352.014 116.797 349.061 121.683 344.557 125.235L344.804 125.549C349.388 121.933 352.387 116.963 353.804 110.652L353.413 110.564ZM344.557 125.235C340.053 128.787 334.499 130.568 327.881 130.568V130.968C334.574 130.968 340.22 129.165 344.804 125.549L344.557 125.235ZM327.881 130.568C322.662 130.568 318.024 129.455 313.96 127.233L313.769 127.583C317.897 129.841 322.603 130.968 327.881 130.968V130.568ZM313.962 127.233C309.963 125.012 306.822 121.839 304.535 117.711L304.186 117.905C306.507 122.097 309.702 125.324 313.767 127.583L313.962 127.233ZM304.537 117.713C302.315 113.587 301.201 108.757 301.201 103.216H300.801C300.801 108.811 301.926 113.709 304.184 117.903L304.537 117.713ZM372.566 127.408L372.471 127.584L372.472 127.585L372.566 127.408ZM362.678 117.808L362.504 117.907L362.505 117.909L362.678 117.808ZM362.773 88.72L362.946 88.8209L362.947 88.8198L362.773 88.72ZM372.758 79.024L372.851 79.2007L372.851 79.2007L372.758 79.024ZM401.174 79.024L401.08 79.2007L401.08 79.2007L401.174 79.024ZM411.158 88.72L410.984 88.8198L410.985 88.8209L411.158 88.72ZM411.062 117.808L410.889 117.706L410.889 117.707L411.062 117.808ZM400.982 127.408L400.889 127.231L400.888 127.231L400.982 127.408ZM394.742 113.104L394.598 112.965L394.596 112.967L394.742 113.104ZM394.838 93.328L394.69 93.4632L394.692 93.4653L394.838 93.328ZM378.998 93.328L379.143 93.4652L379.145 93.4631L378.998 93.328ZM378.902 113.104L378.752 113.237L378.754 113.239L378.902 113.104ZM386.774 130.568C381.555 130.568 376.852 129.455 372.659 127.231L372.472 127.585C376.727 129.841 381.496 130.968 386.774 130.968V130.568ZM372.66 127.232C368.533 125.01 365.264 121.836 362.85 117.707L362.505 117.909C364.955 122.1 368.278 125.326 372.471 127.584L372.66 127.232ZM362.851 117.709C360.503 113.584 359.326 108.755 359.326 103.216H358.926C358.926 108.813 360.116 113.712 362.504 117.907L362.851 117.709ZM359.326 103.216C359.326 97.7423 360.534 92.9462 362.946 88.8209L362.601 88.6191C360.149 92.8138 358.926 97.6817 358.926 103.216H359.326ZM362.947 88.8198C365.36 84.6277 368.661 81.4227 372.851 79.2007L372.664 78.8473C368.406 81.1053 365.051 84.3643 362.6 88.6202L362.947 88.8198ZM372.851 79.2007C377.044 76.9774 381.747 75.864 386.966 75.864V75.464C381.688 75.464 376.919 76.5905 372.664 78.8473L372.851 79.2007ZM386.966 75.864C392.184 75.864 396.887 76.9774 401.08 79.2007L401.267 78.8473C397.012 76.5905 392.243 75.464 386.966 75.464V75.864ZM401.08 79.2007C405.27 81.4227 408.571 84.6277 410.984 88.8198L411.331 88.6202C408.88 84.3643 405.525 81.1053 401.267 78.8473L401.08 79.2007ZM410.985 88.8209C413.397 92.9462 414.606 97.7423 414.606 103.216H415.006C415.006 97.6817 413.782 92.8138 411.33 88.6191L410.985 88.8209ZM414.606 103.216C414.606 108.689 413.365 113.517 410.889 117.706L411.234 117.91C413.75 113.651 415.006 108.751 415.006 103.216H414.606ZM410.889 117.707C408.476 121.834 405.144 125.008 400.889 127.231L401.074 127.585C405.395 125.328 408.783 122.102 411.234 117.909L410.889 117.707ZM400.888 127.231C396.695 129.455 391.992 130.568 386.774 130.568V130.968C392.051 130.968 396.82 129.841 401.075 127.585L400.888 127.231ZM386.774 116.76C389.965 116.76 392.674 115.585 394.887 113.241L394.596 112.967C392.457 115.231 389.854 116.36 386.774 116.36V116.76ZM394.885 113.243C397.172 110.891 398.302 107.538 398.302 103.216H397.902C397.902 107.47 396.791 110.709 394.598 112.965L394.885 113.243ZM398.302 103.216C398.302 98.8953 397.205 95.5433 394.983 93.1907L394.692 93.4653C396.822 95.7207 397.902 98.9607 397.902 103.216H398.302ZM394.985 93.1929C392.835 90.8474 390.157 89.672 386.966 89.672V90.072C390.046 90.072 392.616 91.2006 394.69 93.4631L394.985 93.1929ZM386.966 89.672C383.711 89.672 381.001 90.8464 378.85 93.1929L379.145 93.4631C381.218 91.2016 383.82 90.072 386.966 90.072V89.672ZM378.852 93.1908C376.693 95.4809 375.63 98.8341 375.63 103.216H376.03C376.03 98.8939 377.078 95.6551 379.143 93.4652L378.852 93.1908ZM375.63 103.216C375.63 107.534 376.661 110.884 378.752 113.237L379.051 112.971C377.046 110.716 376.03 107.474 376.03 103.216H375.63ZM378.754 113.239C380.904 115.585 383.582 116.76 386.774 116.76V116.36C383.693 116.36 381.123 115.231 379.049 112.969L378.754 113.239ZM471.131 82L470.982 82.1343L470.985 82.1367L471.131 82ZM476.795 130V130.2H476.995V130H476.795ZM460.475 130H460.275V130.2H460.475V130ZM457.691 92.56L457.544 92.6966L457.544 92.6966L457.691 92.56ZM442.715 92.56L442.861 92.6966L442.861 92.6966L442.715 92.56ZM439.931 130V130.2H440.131V130H439.931ZM423.515 130H423.315V130.2H423.515V130ZM423.515 76.432V76.232H423.315V76.432H423.515ZM439.931 76.432H440.131V76.232H439.931V76.432ZM439.931 83.536H439.731V84.1685L440.094 83.651L439.931 83.536ZM446.651 77.968L446.737 78.1485L446.74 78.1469L446.651 77.968ZM456.155 76.056C462.378 76.056 467.314 78.086 470.982 82.1343L471.279 81.8657C467.523 77.722 462.475 75.656 456.155 75.656V76.056ZM470.985 82.1367C474.717 86.122 476.595 91.6357 476.595 98.704H476.995C476.995 91.5643 475.096 85.942 471.276 81.8633L470.985 82.1367ZM476.595 98.704V130H476.995V98.704H476.595ZM476.795 129.8H460.475V130.2H476.795V129.8ZM460.675 130V100.912H460.275V130H460.675ZM460.675 100.912C460.675 97.2939 459.737 94.455 457.837 92.4234L457.544 92.6966C459.356 94.633 460.275 97.3621 460.275 100.912H460.675ZM457.837 92.4234C455.937 90.3926 453.385 89.384 450.203 89.384V89.784C453.292 89.784 455.732 90.7594 457.544 92.6966L457.837 92.4234ZM450.203 89.384C447.02 89.384 444.468 90.3926 442.568 92.4234L442.861 92.6966C444.673 90.7594 447.113 89.784 450.203 89.784V89.384ZM442.568 92.4234C440.668 94.455 439.731 97.2939 439.731 100.912H440.131C440.131 97.3621 441.049 94.633 442.861 92.6966L442.568 92.4234ZM439.731 100.912V130H440.131V100.912H439.731ZM439.931 129.8H423.515V130.2H439.931V129.8ZM423.715 130V76.432H423.315V130H423.715ZM423.515 76.632H439.931V76.232H423.515V76.632ZM439.731 76.432V83.536H440.131V76.432H439.731ZM440.094 83.651C441.737 81.3133 443.949 79.4789 446.737 78.1485L446.564 77.7875C443.72 79.1451 441.452 81.0227 439.767 83.421L440.094 83.651ZM446.74 78.1469C449.525 76.7543 452.662 76.056 456.155 76.056V75.656C452.607 75.656 449.408 76.3657 446.561 77.7891L446.74 78.1469ZM497.514 128.368L497.594 128.185L497.594 128.185L497.514 128.368ZM488.874 121.84L488.714 121.96L488.715 121.962L488.874 121.84ZM485.322 112.432V112.232H485.107L485.123 112.447L485.322 112.432ZM501.546 112.432L501.745 112.411L501.726 112.232H501.546V112.432ZM504.138 116.944L504.258 116.784L504.258 116.784L504.138 116.944ZM514.506 117.52L514.621 117.683L514.623 117.682L514.506 117.52ZM513.834 110.992L513.747 111.172L513.753 111.175L513.834 110.992ZM506.058 108.496L506.107 108.302L506.103 108.301L506.058 108.496ZM496.458 105.712L496.384 105.898L496.388 105.899L496.458 105.712ZM489.834 101.008L489.682 101.138L489.684 101.14L489.834 101.008ZM489.546 83.92L489.38 83.8081L489.38 83.8091L489.546 83.92ZM497.034 77.872L496.953 77.6891L496.952 77.6897L497.034 77.872ZM524.682 80.656L524.551 80.8071L524.552 80.8082L524.682 80.656ZM531.402 93.904V94.104H531.624L531.601 93.8832L531.402 93.904ZM516.234 93.904L516.036 93.9313L516.06 94.104H516.234V93.904ZM513.738 89.488L513.612 89.6435L513.616 89.6463L513.738 89.488ZM503.946 89.008L504.059 89.1729L504.066 89.168L503.946 89.008ZM504.81 95.44L504.723 95.6203L504.726 95.6216L504.81 95.44ZM512.49 97.744L512.54 97.5502L512.533 97.5488L512.49 97.744ZM522.186 100.816L522.11 101.001L522.114 101.003L522.186 100.816ZM528.714 105.616L528.56 105.744L528.564 105.748L528.714 105.616ZM531.69 114.448H531.89L531.89 114.445L531.69 114.448ZM529.002 122.896L528.84 122.779L528.839 122.78L529.002 122.896ZM521.418 128.656L521.34 128.472L521.339 128.472L521.418 128.656ZM509.994 130.568C505.345 130.568 501.213 129.772 497.594 128.185L497.434 128.551C501.111 130.164 505.299 130.968 509.994 130.968V130.568ZM497.594 128.185C493.973 126.596 491.121 124.44 489.033 121.718L488.715 121.962C490.851 124.744 493.759 126.94 497.434 128.551L497.594 128.185ZM489.034 121.72C486.945 118.934 485.775 115.834 485.521 112.417L485.123 112.447C485.381 115.942 486.579 119.114 488.714 121.96L489.034 121.72ZM485.322 112.632H501.546V112.232H485.322V112.632ZM501.347 112.453C501.545 114.366 502.439 115.92 504.018 117.104L504.258 116.784C502.765 115.664 501.931 114.21 501.745 112.411L501.347 112.453ZM504.018 117.104C505.594 118.286 507.526 118.872 509.802 118.872V118.472C507.598 118.472 505.754 117.906 504.258 116.784L504.018 117.104ZM509.802 118.872C511.871 118.872 513.486 118.485 514.621 117.683L514.391 117.357C513.35 118.091 511.829 118.472 509.802 118.472V118.872ZM514.623 117.682C515.821 116.817 516.434 115.704 516.434 114.352H516.034C516.034 115.56 515.495 116.559 514.389 117.358L514.623 117.682ZM516.434 114.352C516.434 113.547 516.224 112.842 515.797 112.244C515.371 111.648 514.739 111.172 513.915 110.809L513.753 111.175C514.529 111.516 515.097 111.952 515.471 112.476C515.844 112.998 516.034 113.621 516.034 114.352H516.434ZM513.921 110.812C512.301 110.034 509.693 109.199 506.107 108.302L506.009 108.69C509.591 109.585 512.167 110.414 513.747 111.172L513.921 110.812ZM506.103 108.301C502.269 107.406 499.077 106.481 496.528 105.525L496.388 105.899C498.959 106.863 502.167 107.794 506.013 108.691L506.103 108.301ZM496.532 105.526C494.002 104.514 491.82 102.965 489.984 100.876L489.684 101.14C491.56 103.275 493.794 104.862 496.384 105.898L496.532 105.526ZM489.986 100.878C488.169 98.7475 487.25 95.8859 487.25 92.272H486.85C486.85 95.9541 487.787 98.9165 489.682 101.138L489.986 100.878ZM487.25 92.272C487.25 89.2385 488.071 86.4933 489.712 84.0309L489.38 83.8091C487.693 86.3387 486.85 89.1615 486.85 92.272H487.25ZM489.712 84.0319C491.416 81.5073 493.881 79.5135 497.116 78.0543L496.952 77.6897C493.659 79.1745 491.132 81.2127 489.38 83.8081L489.712 84.0319ZM497.115 78.0549C500.412 76.5966 504.319 75.864 508.842 75.864V75.464C504.277 75.464 500.312 76.2034 496.953 77.6891L497.115 78.0549ZM508.842 75.864C515.53 75.864 520.758 77.5196 524.551 80.8071L524.813 80.5049C520.926 77.1364 515.594 75.464 508.842 75.464V75.864ZM524.552 80.8082C528.414 84.1001 530.632 88.4675 531.203 93.9248L531.601 93.8832C531.02 88.3325 528.758 83.8679 524.812 80.5038L524.552 80.8082ZM531.402 93.704H516.234V94.104H531.402V93.704ZM516.432 93.8767C516.169 91.9718 515.312 90.4516 513.86 89.3297L513.616 89.6463C514.98 90.7004 515.787 92.1242 516.036 93.9313L516.432 93.8767ZM513.864 89.3325C512.475 88.2081 510.634 87.656 508.362 87.656V88.056C510.57 88.056 512.313 88.5919 513.612 89.6434L513.864 89.3325ZM508.362 87.656C506.419 87.656 504.898 88.0439 503.826 88.848L504.066 89.168C505.042 88.4361 506.465 88.056 508.362 88.056V87.656ZM503.833 88.8432C502.753 89.5858 502.21 90.6405 502.21 91.984H502.61C502.61 90.7675 503.091 89.8382 504.059 89.1728L503.833 88.8432ZM502.21 91.984C502.21 92.7887 502.42 93.5014 502.846 94.1141C503.27 94.7251 503.9 95.2252 504.723 95.6203L504.897 95.2597C504.12 94.8868 503.55 94.4269 503.174 93.8859C502.8 93.3466 502.61 92.7153 502.61 91.984H502.21ZM504.726 95.6216C506.41 96.3988 508.987 97.1704 512.447 97.9392L512.533 97.5488C509.081 96.7816 506.538 96.0172 504.894 95.2584L504.726 95.6216ZM512.44 97.9377C516.403 98.9604 519.626 99.9818 522.11 101.001L522.262 100.631C519.754 99.6022 516.513 98.5756 512.54 97.5503L512.44 97.9377ZM522.114 101.003C524.575 101.949 526.724 103.528 528.56 105.744L528.868 105.488C526.992 103.224 524.789 101.603 522.258 100.629L522.114 101.003ZM528.564 105.748C530.445 107.88 531.427 110.773 531.49 114.451L531.89 114.445C531.825 110.699 530.823 107.704 528.864 105.484L528.564 105.748ZM531.49 114.448C531.49 117.543 530.607 120.318 528.84 122.779L529.164 123.013C530.981 120.482 531.89 117.625 531.89 114.448H531.49ZM528.839 122.78C527.137 125.176 524.641 127.075 521.34 128.472L521.496 128.84C524.851 127.421 527.411 125.48 529.165 123.012L528.839 122.78ZM521.339 128.472C518.105 129.867 514.325 130.568 509.994 130.568V130.968C514.367 130.968 518.203 130.261 521.497 128.84L521.339 128.472Z" fill="black"/>
</svg>
