<svg width="564" height="202" viewBox="0 0 564 202" fill="none" xmlns="http://www.w3.org/2000/svg">
<rect x="42.5" y="4.5" width="184" height="193" rx="21.5" fill="white" stroke="black" stroke-width="9"/>
<path d="M183 56C187.243 56 191.313 54.3143 194.314 51.3137C197.314 48.3131 199 44.2435 199 40C199 35.7565 197.314 31.6869 194.314 28.6863C191.313 25.6857 187.243 24 183 24L183 40L183 56Z" fill="#CA3D3D"/>
<path d="M183 92C187.243 92 191.313 90.3143 194.314 87.3137C197.314 84.3131 199 80.2435 199 76C199 71.7565 197.314 67.6869 194.314 64.6863C191.313 61.6857 187.243 60 183 60L183 76L183 92Z" fill="#FF9A23"/>
<path d="M183 128C187.243 128 191.313 126.314 194.314 123.314C197.314 120.313 199 116.243 199 112C199 107.757 197.314 103.687 194.314 100.686C191.313 97.6857 187.243 96 183 96L183 112L183 128Z" fill="#FDE14D"/>
<path d="M183 164C187.243 164 191.313 162.314 194.314 159.314C197.314 156.313 199 152.243 199 148C199 143.757 197.314 139.687 194.314 136.686C191.313 133.686 187.243 132 183 132L183 148L183 164Z" fill="#79DB4B"/>
<rect x="178.5" y="4.5" width="47" height="193" rx="23.5" stroke="black" stroke-width="9"/>
<rect x="122" y="22" width="39" height="36" rx="9" fill="#3E4462"/>
<rect x="62" y="27" width="51" height="10" rx="5" fill="#3E4462"/>
<rect x="62" y="44" width="51" height="10" rx="5" fill="#3E4462"/>
<rect x="62" y="71" width="99" height="10" rx="5" fill="#3E4462"/>
<rect x="62" y="88" width="99" height="10" rx="5" fill="#3E4462"/>
<rect x="62" y="105" width="99" height="10" rx="5" fill="#3E4462"/>
<rect x="62" y="122" width="99" height="10" rx="5" fill="#3E4462"/>
<rect x="62" y="139" width="99" height="10" rx="5" fill="#3E4462"/>
<rect x="62" y="156" width="99" height="10" rx="5" fill="#3E4462"/>
<mask id="path-16-inside-1" fill="white">
<path fill-rule="evenodd" clip-rule="evenodd" d="M38.3805 202H228.332C230.042 198.522 231 194.621 231 190.5C231 175.864 218.912 164 204 164C203.281 164 202.568 164.028 201.863 164.082C196.312 157.252 188.502 153 179.85 153C173.51 153 167.621 155.283 162.743 159.191C155.557 149.375 143.948 143 130.85 143C115.139 143 101.57 152.172 95.2071 165.454C91.7649 163.88 87.9142 163 83.8499 163C76.2552 163 69.4067 166.074 64.5751 171L64.5 171C49.8645 171 38 182.864 38 197.5C38 199.034 38.1303 200.537 38.3805 202Z"/>
</mask>
<path fill-rule="evenodd" clip-rule="evenodd" d="M38.3805 202H228.332C230.042 198.522 231 194.621 231 190.5C231 175.864 218.912 164 204 164C203.281 164 202.568 164.028 201.863 164.082C196.312 157.252 188.502 153 179.85 153C173.51 153 167.621 155.283 162.743 159.191C155.557 149.375 143.948 143 130.85 143C115.139 143 101.57 152.172 95.2071 165.454C91.7649 163.88 87.9142 163 83.8499 163C76.2552 163 69.4067 166.074 64.5751 171L64.5 171C49.8645 171 38 182.864 38 197.5C38 199.034 38.1303 200.537 38.3805 202Z" fill="white"/>
<path d="M38.3805 202L30.4951 203.349L31.6328 210H38.3805V202ZM228.332 202V210H233.314L235.512 205.529L228.332 202ZM201.863 164.082L195.655 169.127L198.298 172.379L202.476 172.058L201.863 164.082ZM162.743 159.191L156.288 163.917L161.224 170.659L167.745 165.435L162.743 159.191ZM95.2071 165.454L91.8811 172.73L99.0269 175.996L102.422 168.911L95.2071 165.454ZM64.5751 171L64.5637 179L67.9294 179.005L70.2863 176.602L64.5751 171ZM64.5 171L64.5114 163H64.5V171ZM38.3805 210H228.332V194H38.3805V210ZM235.512 205.529C237.747 200.98 239 195.875 239 190.5H223C223 193.366 222.336 196.063 221.152 198.471L235.512 205.529ZM239 190.5C239 171.306 223.188 156 204 156V172C214.635 172 223 180.423 223 190.5H239ZM204 156C203.076 156 202.159 156.035 201.25 156.105L202.476 172.058C202.977 172.02 203.485 172 204 172V156ZM208.071 159.036C201.237 150.628 191.261 145 179.85 145V161C185.742 161 191.386 163.876 195.655 169.127L208.071 159.036ZM179.85 145C171.521 145 163.9 148.014 157.741 152.948L167.745 165.435C171.343 162.553 175.498 161 179.85 161V145ZM169.198 154.466C160.57 142.68 146.606 135 130.85 135V151C141.289 151 150.543 156.07 156.288 163.917L169.198 154.466ZM130.85 135C111.945 135 95.6356 146.044 87.9924 161.997L102.422 168.911C107.505 158.3 118.333 151 130.85 151V135ZM98.5331 158.178C94.0615 156.134 89.0779 155 83.8499 155V171C86.7506 171 89.4682 171.627 91.8811 172.73L98.5331 158.178ZM83.8499 155C74.0671 155 65.172 158.967 58.8639 165.398L70.2863 176.602C73.6414 173.182 78.4433 171 83.8499 171V155ZM64.5865 163L64.5114 163L64.4886 179L64.5637 179L64.5865 163ZM64.5 163C45.4462 163 30 178.446 30 197.5H46C46 187.283 54.2827 179 64.5 179V163ZM30 197.5C30 199.488 30.169 201.443 30.4951 203.349L46.266 200.651C46.0917 199.632 46 198.58 46 197.5H30Z" fill="black" mask="url(#path-16-inside-1)"/>
<path d="M292.368 62.608V130H275.952V62.608H292.368ZM301.001 103.216C301.001 97.648 302.121 92.784 304.361 88.624C306.665 84.464 309.833 81.264 313.865 79.024C317.961 76.784 322.633 75.664 327.881 75.664C334.601 75.664 340.201 77.424 344.681 80.944C349.225 84.464 352.201 89.424 353.609 95.824H336.137C334.665 91.728 331.817 89.68 327.593 89.68C324.585 89.68 322.185 90.864 320.393 93.232C318.601 95.536 317.705 98.864 317.705 103.216C317.705 107.568 318.601 110.928 320.393 113.296C322.185 115.6 324.585 116.752 327.593 116.752C331.817 116.752 334.665 114.704 336.137 110.608H353.609C352.201 116.88 349.225 121.808 344.681 125.392C340.137 128.976 334.537 130.768 327.881 130.768C322.633 130.768 317.961 129.648 313.865 127.408C309.833 125.168 306.665 121.968 304.361 117.808C302.121 113.648 301.001 108.784 301.001 103.216ZM386.774 130.768C381.526 130.768 376.79 129.648 372.566 127.408C368.406 125.168 365.11 121.968 362.678 117.808C360.31 113.648 359.126 108.784 359.126 103.216C359.126 97.712 360.342 92.88 362.773 88.72C365.206 84.496 368.534 81.264 372.758 79.024C376.982 76.784 381.718 75.664 386.966 75.664C392.214 75.664 396.95 76.784 401.174 79.024C405.398 81.264 408.726 84.496 411.158 88.72C413.59 92.88 414.806 97.712 414.806 103.216C414.806 108.72 413.558 113.584 411.062 117.808C408.63 121.968 405.27 125.168 400.982 127.408C396.758 129.648 392.022 130.768 386.774 130.768ZM386.774 116.56C389.91 116.56 392.566 115.408 394.742 113.104C396.982 110.8 398.102 107.504 398.102 103.216C398.102 98.928 397.014 95.632 394.838 93.328C392.726 91.024 390.102 89.872 386.966 89.872C383.766 89.872 381.11 91.024 378.998 93.328C376.886 95.568 375.83 98.864 375.83 103.216C375.83 107.504 376.854 110.8 378.902 113.104C381.014 115.408 383.638 116.56 386.774 116.56ZM456.155 75.856C462.427 75.856 467.419 77.904 471.131 82C474.907 86.032 476.795 91.6 476.795 98.704V130H460.475V100.912C460.475 97.328 459.547 94.544 457.691 92.56C455.835 90.576 453.339 89.584 450.203 89.584C447.067 89.584 444.571 90.576 442.715 92.56C440.859 94.544 439.931 97.328 439.931 100.912V130H423.515V76.432H439.931V83.536C441.595 81.168 443.835 79.312 446.651 77.968C449.467 76.56 452.635 75.856 456.155 75.856ZM509.994 130.768C505.322 130.768 501.162 129.968 497.514 128.368C493.866 126.768 490.986 124.592 488.874 121.84C486.762 119.024 485.578 115.888 485.322 112.432H501.546C501.738 114.288 502.602 115.792 504.138 116.944C505.674 118.096 507.562 118.672 509.802 118.672C511.85 118.672 513.418 118.288 514.506 117.52C515.658 116.688 516.234 115.632 516.234 114.352C516.234 112.816 515.434 111.696 513.834 110.992C512.234 110.224 509.642 109.392 506.058 108.496C502.218 107.6 499.018 106.672 496.458 105.712C493.898 104.688 491.69 103.12 489.834 101.008C487.978 98.832 487.05 95.92 487.05 92.272C487.05 89.2 487.882 86.416 489.546 83.92C491.274 81.36 493.77 79.344 497.034 77.872C500.362 76.4 504.298 75.664 508.842 75.664C515.562 75.664 520.842 77.328 524.682 80.656C528.586 83.984 530.826 88.4 531.402 93.904H516.234C515.978 92.048 515.146 90.576 513.738 89.488C512.394 88.4 510.602 87.856 508.362 87.856C506.442 87.856 504.97 88.24 503.946 89.008C502.922 89.712 502.41 90.704 502.41 91.984C502.41 93.52 503.21 94.672 504.81 95.44C506.474 96.208 509.034 96.976 512.49 97.744C516.458 98.768 519.69 99.792 522.186 100.816C524.682 101.776 526.858 103.376 528.714 105.616C530.634 107.792 531.626 110.736 531.69 114.448C531.69 117.584 530.794 120.4 529.002 122.896C527.274 125.328 524.746 127.248 521.418 128.656C518.154 130.064 514.346 130.768 509.994 130.768Z" fill="black"/>
</svg>
